<svg height="188" viewBox="-14.691 -14.656 188 188" width="188" xmlns="http://www.w3.org/2000/svg"><g fill="#fff"><path d="m144.73 51.788c-12.773 0-23.13-10.356-23.13-23.13 0-5.044 1.62-9.707 4.36-13.508-13.08-9.54-29.22-15.163-46.76-15.163-44.09 0-79.138 35.49-79.138 79.577 0 44.086 35.048 79.136 79.138 79.136 44.086 0 79.355-35.05 79.355-79.136 0-10.367-1.95-20.258-5.507-29.324-2.582.996-5.384 1.548-8.318 1.548zm-65.53 71.642c-24.03 0-43.868-19.84-43.868-43.865 0-24.25 19.84-44.308 43.867-44.308 24.245 0 44.084 20.06 44.084 44.308 0 24.026-19.84 43.867-44.088 43.867l.004-.002z"/><path d="m144.692.168c-15.828 0-28.41 12.74-28.41 28.568s12.582 28.41 28.41 28.41 28.49-12.582 28.49-28.41-12.662-28.568-28.49-28.568zm-.014 49.575c-11.49 0-20.98-9.488-20.98-20.98 0-11.595 9.49-21.188 20.98-21.188 11.597 0 21.085 9.593 21.085 21.19 0 11.49-9.488 20.978-21.085 20.978z"/></g></svg>